<?xml version="1.0" standalone="no"?>
<!DOCTYPE svg PUBLIC "-//W3C//DTD SVG 20010904//EN"
 "http://www.w3.org/TR/2001/REC-SVG-20010904/DTD/svg10.dtd">
<svg version="1.0" xmlns="http://www.w3.org/2000/svg"
 width="512.000000pt" height="512.000000pt" viewBox="0 0 512.000000 512.000000"
 preserveAspectRatio="xMidYMid meet">

<g transform="translate(0.000000,512.000000) scale(0.100000,-0.100000)"
fill="#000000" stroke="none">
<path d="M371 4774 c-153 -41 -285 -170 -332 -324 -19 -64 -19 -97 -17 -1910
l3 -1845 23 -57 c49 -121 159 -231 280 -280 l57 -23 2175 0 2175 0 58 23 c107
44 222 153 265 252 43 101 42 43 42 1950 0 1976 3 1859 -56 1977 -34 66 -124
159 -191 195 -113 62 35 58 -2298 57 -1832 0 -2138 -2 -2184 -15z m-61 -207
c0 -2 -17 -19 -37 -38 l-38 -34 34 38 c33 34 41 42 41 34z m4540 -32 c19 -19
32 -35 29 -35 -3 0 -20 16 -39 35 -19 19 -32 35 -29 35 3 0 20 -16 39 -35z
m-4043 -22 c-20 -2 -52 -2 -70 0 -17 2 0 4 38 4 39 0 53 -2 32 -4z m360 0
c-20 -2 -52 -2 -70 0 -17 2 0 4 38 4 39 0 53 -2 32 -4z m360 0 c-20 -2 -52 -2
-70 0 -17 2 0 4 38 4 39 0 53 -2 32 -4z m-646 -20 c13 -16 12 -17 -3 -4 -10 7
-18 15 -18 17 0 8 8 3 21 -13z m360 0 c13 -16 12 -17 -3 -4 -10 7 -18 15 -18
17 0 8 8 3 21 -13z m360 0 c13 -16 12 -17 -3 -4 -17 13 -22 21 -14 21 2 0 10
-8 17 -17z m-944 -65 c-3 -8 -6 -5 -6 6 -1 11 2 17 5 13 3 -3 4 -12 1 -19z
m360 0 c-3 -8 -6 -5 -6 6 -1 11 2 17 5 13 3 -3 4 -12 1 -19z m360 0 c-3 -8 -6
-5 -6 6 -1 11 2 17 5 13 3 -3 4 -12 1 -19z m3560 -70 c-3 -8 -6 -5 -6 6 -1 11
2 17 5 13 3 -3 4 -12 1 -19z m-1185 -125 c-655 -2 -1729 -2 -2385 0 -655 1
-119 2 1193 2 1312 0 1848 -1 1192 -2z m1188 -1818 l0 -1664 -22 -58 c-29 -77
-104 -152 -181 -181 -57 -22 -67 -22 -682 -22 l-625 0 0 435 c0 466 -1 478
-51 531 -32 34 -71 47 -518 174 -288 81 -428 125 -437 137 -26 34 -54 124 -54
172 0 48 1 50 65 100 35 28 83 75 106 103 39 50 100 162 112 207 3 14 16 22
43 26 141 23 229 115 241 253 12 131 -63 253 -174 285 -46 13 -48 16 -50 53
-8 122 -28 247 -49 314 -64 202 -205 337 -415 397 -51 14 -99 18 -239 17 -162
0 -181 -2 -255 -27 -88 -29 -182 -81 -234 -130 -105 -99 -173 -268 -193 -477
l-13 -133 -49 -14 c-72 -21 -149 -101 -172 -178 -43 -149 42 -297 195 -341 80
-23 81 -24 104 -84 40 -109 119 -211 212 -276 l55 -37 0 -61 c0 -47 -7 -76
-29 -123 -28 -59 -31 -62 -83 -76 -29 -9 -231 -66 -448 -128 -415 -117 -442
-128 -478 -192 -15 -29 -17 -76 -20 -481 l-3 -448 -92 4 c-71 3 -103 9 -142
28 -70 34 -139 107 -164 175 -21 56 -21 60 -21 1720 l0 1665 2380 0 2380 0 0
-1665z m-2835 565 c153 -52 194 -63 270 -67 65 -4 102 -1 133 10 l43 15 -6
-167 c-11 -300 -29 -384 -106 -500 -90 -135 -238 -211 -414 -211 -181 0 -340
81 -433 219 -74 112 -95 199 -105 454 l-5 108 48 58 c26 32 71 72 99 90 127
82 216 80 476 -9z m-766 -392 c1 -51 -1 -57 -16 -51 -33 11 -73 56 -79 89 -9
48 13 102 50 125 l31 19 6 -63 c4 -34 7 -88 8 -119z m1420 138 c46 -49 27
-150 -35 -178 -13 -6 -26 -9 -28 -7 -3 3 -2 55 1 116 7 123 9 126 62 69z
m-842 -817 c63 -11 201 -7 264 7 26 6 27 4 43 -67 9 -40 32 -101 50 -135 l34
-62 -31 -34 c-74 -81 -192 -126 -297 -114 -71 8 -164 54 -214 105 l-40 41 37
74 c20 41 42 104 49 140 9 46 17 65 25 61 7 -2 43 -10 80 -16z m190 -1207 c-1
-119 -2 -21 -2 218 0 239 1 337 2 217 2 -119 2 -315 0 -435z m-1340 1 c-1
-120 -2 -24 -2 212 0 237 1 335 2 218 2 -116 2 -310 0 -430z m1664 260 c13
-16 12 -17 -3 -4 -17 13 -22 21 -14 21 2 0 10 -8 17 -17z m529 13 c0 -2 -8
-10 -17 -17 -16 -13 -17 -12 -4 4 13 16 21 21 21 13z m-157 -33 c-62 -2 -165
-2 -230 0 -65 1 -14 3 112 3 127 0 180 -2 118 -3z"/>
<path d="M3333 3540 c-49 -20 -59 -96 -17 -129 26 -21 35 -21 621 -21 677 0
652 -3 653 82 0 28 -6 42 -26 57 -26 21 -34 21 -618 20 -325 0 -601 -4 -613
-9z"/>
<path d="M3333 2870 c-49 -20 -59 -96 -17 -129 26 -21 35 -21 630 -21 591 0
604 0 624 20 28 28 27 90 -1 116 -20 18 -47 19 -618 21 -331 1 -606 -2 -618
-7z"/>
<path d="M3333 2200 c-49 -20 -59 -96 -17 -129 26 -21 35 -21 630 -21 591 0
604 0 624 20 28 28 27 90 -1 116 -20 18 -47 19 -618 21 -331 1 -606 -2 -618
-7z"/>
</g>
</svg>
