<?xml version="1.0" standalone="no"?>
<!DOCTYPE svg PUBLIC "-//W3C//DTD SVG 20010904//EN"
 "http://www.w3.org/TR/2001/REC-SVG-20010904/DTD/svg10.dtd">
<svg version="1.0" xmlns="http://www.w3.org/2000/svg"
 width="512.000000pt" height="512.000000pt" viewBox="0 0 512.000000 512.000000"
 preserveAspectRatio="xMidYMid meet">

<g transform="translate(0.000000,512.000000) scale(0.100000,-0.100000)"
fill="#000000" stroke="none">
<path d="M245 5111 c-90 -22 -172 -90 -215 -176 l-25 -50 0 -2325 0 -2325 23
-45 c35 -72 75 -114 144 -151 l63 -34 2325 0 2325 0 63 34 c70 38 100 69 140
145 l27 51 0 2325 0 2325 -34 63 c-37 69 -79 109 -151 144 l-45 23 -2305 2
c-1268 0 -2318 -2 -2335 -6z m4600 -217 c61 -29 65 -50 65 -353 l0 -271 -2350
0 -2350 0 0 271 c0 301 4 324 63 353 29 14 260 16 2285 16 2032 0 2257 -2
2287 -16z m65 -2715 c0 -2074 5 -1920 -65 -1953 -30 -14 -255 -16 -2285 -16
-2030 0 -2255 2 -2285 16 -70 33 -65 -121 -65 1953 l0 1871 2350 0 2350 0 0
-1871z"/>
<path d="M488 4673 c-71 -44 -60 -168 17 -187 39 -10 92 18 111 57 45 93 -43
182 -128 130z"/>
<path d="M885 4666 c-50 -50 -43 -125 15 -164 102 -69 218 72 131 159 -39 39
-109 41 -146 5z"/>
<path d="M1324 4672 c-55 -44 -59 -109 -10 -158 70 -70 175 -26 176 74 0 61
-41 102 -102 102 -26 0 -52 -7 -64 -18z"/>
<path d="M2510 3293 c-25 -8 -418 -154 -875 -325 -909 -340 -885 -329 -885
-408 0 -56 36 -91 133 -126 l77 -29 -6 -312 -7 -312 35 -35 c45 -45 101 -50
144 -12 36 30 43 91 43 379 1 156 4 207 13 207 7 0 56 -17 110 -37 l97 -37 3
-531 3 -530 23 -43 c35 -66 88 -119 150 -149 l57 -28 935 0 935 0 57 28 c62
30 115 83 150 149 l23 43 3 530 3 531 187 68 c315 115 391 147 422 173 26 21
30 32 30 74 0 45 -3 50 -38 74 -51 34 -167 81 -612 247 -206 77 -549 205 -761
284 -212 79 -390 144 -395 143 -5 0 -29 -7 -54 -16z m753 -470 c378 -142 687
-260 687 -263 0 -10 -1379 -522 -1398 -518 -28 5 -1382 512 -1382 518 0 7
1362 518 1385 519 11 1 329 -115 708 -256z m-1178 -839 c333 -125 475 -174
493 -169 13 3 227 82 474 175 248 94 455 170 459 170 5 0 9 -203 9 -450 0
-501 0 -498 -65 -526 -51 -21 -1739 -21 -1790 0 -65 28 -65 25 -65 526 0 247
4 450 8 450 5 0 220 -79 477 -176z"/>
</g>
</svg>
