<?xml version="1.0" standalone="no"?>
<!DOCTYPE svg PUBLIC "-//W3C//DTD SVG 20010904//EN"
 "http://www.w3.org/TR/2001/REC-SVG-20010904/DTD/svg10.dtd">
<svg version="1.0" xmlns="http://www.w3.org/2000/svg"
 width="512.000000pt" height="512.000000pt" viewBox="0 0 512.000000 512.000000"
 preserveAspectRatio="xMidYMid meet">

<g transform="translate(0.000000,512.000000) scale(0.100000,-0.100000)"
fill="#000000" stroke="none">
<path d="M245 4791 c-90 -22 -172 -90 -215 -176 l-25 -50 -3 -1883 c-2 -2079
-6 -1949 60 -2076 41 -78 146 -183 224 -224 126 -66 -28 -62 2316 -62 1519 0
2142 3 2180 11 157 33 293 170 327 327 8 38 11 434 11 1375 0 1445 2 1385 -57
1487 -40 68 -112 133 -188 171 -69 34 -70 34 -232 37 l-162 4 -3 201 c-3 198
-4 203 -31 259 -30 62 -83 115 -149 150 l-43 23 -984 3 -985 2 -180 183 c-145
147 -193 189 -241 213 l-60 29 -765 2 c-421 0 -778 -2 -795 -6z m1722 -402
c109 -108 209 -204 223 -213 22 -15 114 -16 1010 -16 959 0 986 -1 1017 -20
46 -28 55 -69 51 -250 l-3 -155 -1545 -5 c-1411 -5 -1549 -6 -1586 -22 -125
-50 -222 -154 -265 -283 -11 -32 -15 -294 -19 -1350 l-5 -1310 -24 -49 c-120
-243 -464 -239 -577 6 l-29 63 -3 1853 c-2 1674 -1 1857 14 1887 32 68 -1 65
811 62 l733 -2 197 -196z m2824 -897 c39 -20 62 -41 84 -77 l30 -48 3 -1306
c2 -967 0 -1320 -8 -1360 -16 -71 -83 -142 -152 -159 -35 -9 -517 -12 -1912
-12 -1026 0 -1866 3 -1866 7 0 3 14 28 31 54 63 99 62 68 66 1488 4 1226 5
1286 23 1320 10 20 31 48 47 63 64 61 -67 57 1849 58 l1752 0 53 -28z"/>
<path d="M2160 2855 c-443 -133 -817 -250 -833 -258 -51 -30 -62 -107 -22
-155 16 -20 46 -36 92 -50 38 -12 74 -22 81 -22 9 0 12 -78 12 -335 0 -370 3
-390 59 -419 38 -20 64 -20 101 -1 53 28 55 36 60 371 l5 311 103 -30 102 -30
0 -522 c0 -602 -1 -595 80 -675 83 -84 36 -80 990 -80 930 0 888 -3 970 67 24
21 53 60 66 87 l24 51 0 538 c0 295 2 537 3 537 19 0 576 174 593 185 13 8 28
32 35 54 9 31 9 44 -5 72 -9 19 -24 39 -34 45 -20 13 -1598 489 -1647 497 -21
4 -266 -66 -835 -238z m1435 -160 c334 -101 609 -186 611 -187 1 -2 -272 -87
-608 -189 l-611 -186 -121 37 c-67 21 -340 104 -609 185 -268 82 -485 150
-482 153 4 4 1186 368 1206 371 4 1 280 -82 614 -184z m-1038 -650 c229 -69
423 -125 432 -125 12 0 654 190 834 246 16 5 17 -22 17 -479 0 -438 -2 -486
-17 -498 -23 -20 -1655 -21 -1675 -1 -10 10 -14 116 -16 497 -1 267 0 485 3
485 3 0 193 -56 422 -125z"/>
</g>
</svg>
